<svg width="739" height="152" viewBox="0 0 739 152" fill="none" xmlns="http://www.w3.org/2000/svg">
<rect opacity="0.5" x="62.5" y="1" width="62.5" height="62.5" fill="black"/>
<rect y="26" width="62.5" height="62.5" fill="black"/>
<rect x="87.5" y="63.5" width="62.5" height="62.5" fill="black"/>
<rect opacity="0.5" x="25" y="88.5" width="62.5" height="62.5" fill="black"/>
<path d="M199.64 124.5V35.1H212.36L261.56 101.34L254.96 102.66V35.1H271.28V124.5H258.44L209.96 57.78L215.96 56.46V124.5H199.64ZM313.425 125.94C306.705 125.94 300.825 124.42 295.785 121.38C290.745 118.34 286.825 114.22 284.025 109.02C281.225 103.82 279.825 98.06 279.825 91.74C279.825 85.18 281.225 79.38 284.025 74.34C286.905 69.22 290.785 65.18 295.665 62.22C300.625 59.26 306.145 57.78 312.225 57.78C317.345 57.78 321.825 58.62 325.665 60.3C329.585 61.98 332.905 64.3 335.625 67.26C338.345 70.22 340.425 73.62 341.865 77.46C343.305 81.22 344.025 85.3 344.025 89.7C344.025 90.82 343.945 91.98 343.785 93.18C343.705 94.38 343.505 95.42 343.185 96.3H292.785V84.3H334.305L326.865 89.94C327.585 86.26 327.385 82.98 326.265 80.1C325.225 77.22 323.465 74.94 320.985 73.26C318.585 71.58 315.665 70.74 312.225 70.74C308.945 70.74 306.025 71.58 303.465 73.26C300.905 74.86 298.945 77.26 297.585 80.46C296.305 83.58 295.825 87.38 296.145 91.86C295.825 95.86 296.345 99.42 297.705 102.54C299.145 105.58 301.225 107.94 303.945 109.62C306.745 111.3 309.945 112.14 313.545 112.14C317.145 112.14 320.185 111.38 322.665 109.86C325.225 108.34 327.225 106.3 328.665 103.74L341.385 109.98C340.105 113.1 338.105 115.86 335.385 118.26C332.665 120.66 329.425 122.54 325.665 123.9C321.985 125.26 317.905 125.94 313.425 125.94ZM374.422 125.94C369.382 125.94 364.982 124.82 361.222 122.58C357.542 120.34 354.702 117.22 352.702 113.22C350.782 109.22 349.822 104.54 349.822 99.18V59.22H365.542V97.86C365.542 100.58 366.062 102.98 367.102 105.06C368.222 107.06 369.782 108.66 371.782 109.86C373.862 110.98 376.182 111.54 378.742 111.54C381.302 111.54 383.582 110.98 385.582 109.86C387.582 108.66 389.142 107.02 390.262 104.94C391.382 102.86 391.942 100.38 391.942 97.5V59.22H407.662V124.5H392.782V111.66L394.102 113.94C392.582 117.94 390.062 120.94 386.542 122.94C383.102 124.94 379.062 125.94 374.422 125.94ZM448.435 125.94C441.715 125.94 435.835 124.42 430.795 121.38C425.755 118.34 421.835 114.22 419.035 109.02C416.235 103.82 414.835 98.06 414.835 91.74C414.835 85.18 416.235 79.38 419.035 74.34C421.915 69.22 425.795 65.18 430.675 62.22C435.635 59.26 441.155 57.78 447.235 57.78C452.355 57.78 456.835 58.62 460.675 60.3C464.595 61.98 467.915 64.3 470.635 67.26C473.355 70.22 475.435 73.62 476.875 77.46C478.315 81.22 479.035 85.3 479.035 89.7C479.035 90.82 478.955 91.98 478.795 93.18C478.715 94.38 478.515 95.42 478.195 96.3H427.795V84.3H469.315L461.875 89.94C462.595 86.26 462.395 82.98 461.275 80.1C460.235 77.22 458.475 74.94 455.995 73.26C453.595 71.58 450.675 70.74 447.235 70.74C443.955 70.74 441.035 71.58 438.475 73.26C435.915 74.86 433.955 77.26 432.595 80.46C431.315 83.58 430.835 87.38 431.155 91.86C430.835 95.86 431.355 99.42 432.715 102.54C434.155 105.58 436.235 107.94 438.955 109.62C441.755 111.3 444.955 112.14 448.555 112.14C452.155 112.14 455.195 111.38 457.675 109.86C460.235 108.34 462.235 106.3 463.675 103.74L476.395 109.98C475.115 113.1 473.115 115.86 470.395 118.26C467.675 120.66 464.435 122.54 460.675 123.9C456.995 125.26 452.915 125.94 448.435 125.94ZM486.151 124.5V59.22H500.911V74.34L499.231 71.82C500.431 67.1 502.831 63.58 506.431 61.26C510.031 58.94 514.271 57.78 519.151 57.78C524.511 57.78 529.231 59.18 533.311 61.98C537.391 64.78 540.031 68.46 541.231 73.02L536.791 73.38C538.791 68.18 541.791 64.3 545.791 61.74C549.791 59.1 554.391 57.78 559.591 57.78C564.231 57.78 568.351 58.82 571.951 60.9C575.631 62.98 578.511 65.9 580.591 69.66C582.671 73.34 583.711 77.62 583.711 82.5V124.5H567.991V86.22C567.991 83.34 567.471 80.86 566.431 78.78C565.391 76.7 563.951 75.1 562.111 73.98C560.271 72.78 558.031 72.18 555.391 72.18C552.911 72.18 550.711 72.78 548.791 73.98C546.871 75.1 545.391 76.7 544.351 78.78C543.311 80.86 542.791 83.34 542.791 86.22V124.5H527.071V86.22C527.071 83.34 526.551 80.86 525.511 78.78C524.471 76.7 522.991 75.1 521.071 73.98C519.231 72.78 517.031 72.18 514.471 72.18C511.991 72.18 509.791 72.78 507.871 73.98C505.951 75.1 504.471 76.7 503.431 78.78C502.391 80.86 501.871 83.34 501.871 86.22V124.5H486.151ZM624.131 125.94C617.731 125.94 611.891 124.46 606.611 121.5C601.411 118.54 597.251 114.5 594.131 109.38C591.091 104.26 589.571 98.42 589.571 91.86C589.571 85.3 591.091 79.46 594.131 74.34C597.251 69.22 601.411 65.18 606.611 62.22C611.811 59.26 617.651 57.78 624.131 57.78C630.531 57.78 636.331 59.26 641.531 62.22C646.731 65.18 650.851 69.22 653.891 74.34C657.011 79.38 658.571 85.22 658.571 91.86C658.571 98.42 657.011 104.26 653.891 109.38C650.771 114.5 646.611 118.54 641.411 121.5C636.211 124.46 630.451 125.94 624.131 125.94ZM624.131 111.54C627.651 111.54 630.731 110.7 633.371 109.02C636.091 107.34 638.211 105.02 639.731 102.06C641.331 99.02 642.131 95.62 642.131 91.86C642.131 88.02 641.331 84.66 639.731 81.78C638.211 78.82 636.091 76.5 633.371 74.82C630.731 73.06 627.651 72.18 624.131 72.18C620.531 72.18 617.371 73.06 614.651 74.82C611.931 76.5 609.771 78.82 608.171 81.78C606.651 84.66 605.891 88.02 605.891 91.86C605.891 95.62 606.651 99.02 608.171 102.06C609.771 105.02 611.931 107.34 614.651 109.02C617.371 110.7 620.531 111.54 624.131 111.54ZM696.052 125.94C689.732 125.94 684.092 124.46 679.132 121.5C674.172 118.46 670.252 114.34 667.372 109.14C664.492 103.94 663.052 98.18 663.052 91.86C663.052 85.46 664.492 79.7 667.372 74.58C670.252 69.46 674.172 65.38 679.132 62.34C684.172 59.3 689.772 57.78 695.932 57.78C700.892 57.78 705.292 58.78 709.132 60.78C713.052 62.7 716.132 65.42 718.372 68.94L715.972 72.18V33.66H731.692V124.5H716.812V111.9L718.492 115.02C716.252 118.54 713.132 121.26 709.132 123.18C705.132 125.02 700.772 125.94 696.052 125.94ZM697.732 111.54C701.332 111.54 704.492 110.7 707.212 109.02C709.932 107.34 712.052 105.02 713.572 102.06C715.172 99.1 715.972 95.7 715.972 91.86C715.972 88.1 715.172 84.74 713.572 81.78C712.052 78.74 709.932 76.38 707.212 74.7C704.492 73.02 701.332 72.18 697.732 72.18C694.212 72.18 691.052 73.06 688.252 74.82C685.452 76.5 683.252 78.82 681.652 81.78C680.132 84.66 679.372 88.02 679.372 91.86C679.372 95.7 680.132 99.1 681.652 102.06C683.252 105.02 685.452 107.34 688.252 109.02C691.052 110.7 694.212 111.54 697.732 111.54Z" fill="black"/>
</svg>
