<svg width="774" height="151" viewBox="0 0 774 151" fill="none" xmlns="http://www.w3.org/2000/svg">
<rect opacity="0.5" x="62.5" y="0.5" width="62.5" height="62.5" fill="white"/>
<rect y="25.5" width="62.5" height="62.5" fill="white"/>
<rect x="87.5" y="63" width="62.5" height="62.5" fill="white"/>
<rect opacity="0.5" x="25" y="88" width="62.5" height="62.5" fill="white"/>
<path d="M199.64 124V34.6H233C239.08 34.6 244.44 35.72 249.08 37.96C253.8 40.12 257.48 43.32 260.12 47.56C262.76 51.72 264.08 56.8 264.08 62.8C264.08 68.72 262.72 73.8 260 78.04C257.36 82.2 253.72 85.4 249.08 87.64C244.44 89.88 239.08 91 233 91H215.96V124H199.64ZM215.96 76.6H233.24C236.2 76.6 238.76 76.04 240.92 74.92C243.08 73.72 244.76 72.08 245.96 70C247.16 67.92 247.76 65.52 247.76 62.8C247.76 60 247.16 57.6 245.96 55.6C244.76 53.52 243.08 51.92 240.92 50.8C238.76 49.6 236.2 49 233.24 49H215.96V76.6ZM271.332 124V33.16H287.052V71.56L284.892 69.28C286.412 65.36 288.892 62.4 292.332 60.4C295.852 58.32 299.932 57.28 304.573 57.28C309.373 57.28 313.613 58.32 317.293 60.4C321.053 62.48 323.972 65.4 326.052 69.16C328.133 72.84 329.173 77.12 329.173 82V124H313.453V85.72C313.453 82.84 312.893 80.36 311.773 78.28C310.652 76.2 309.092 74.6 307.093 73.48C305.172 72.28 302.892 71.68 300.252 71.68C297.692 71.68 295.412 72.28 293.412 73.48C291.412 74.6 289.852 76.2 288.732 78.28C287.612 80.36 287.052 82.84 287.052 85.72V124H271.332ZM357.465 125.44C352.905 125.44 348.945 124.68 345.585 123.16C342.225 121.64 339.625 119.48 337.785 116.68C335.945 113.8 335.025 110.48 335.025 106.72C335.025 103.12 335.825 99.92 337.425 97.12C339.025 94.24 341.505 91.84 344.865 89.92C348.225 88 352.465 86.64 357.585 85.84L378.945 82.36V94.36L360.585 97.48C357.465 98.04 355.145 99.04 353.625 100.48C352.105 101.92 351.345 103.8 351.345 106.12C351.345 108.36 352.185 110.16 353.865 111.52C355.625 112.8 357.785 113.44 360.345 113.44C363.625 113.44 366.505 112.76 368.985 111.4C371.545 109.96 373.505 108 374.865 105.52C376.305 103.04 377.025 100.32 377.025 97.36V80.56C377.025 77.76 375.905 75.44 373.665 73.6C371.505 71.68 368.625 70.72 365.025 70.72C361.665 70.72 358.665 71.64 356.025 73.48C353.465 75.24 351.585 77.6 350.385 80.56L337.545 74.32C338.825 70.88 340.825 67.92 343.545 65.44C346.345 62.88 349.625 60.88 353.385 59.44C357.145 58 361.225 57.28 365.625 57.28C370.985 57.28 375.705 58.28 379.785 60.28C383.865 62.2 387.025 64.92 389.265 68.44C391.585 71.88 392.745 75.92 392.745 80.56V124H377.865V112.84L381.225 112.6C379.545 115.4 377.545 117.76 375.225 119.68C372.905 121.52 370.265 122.96 367.305 124C364.345 124.96 361.065 125.44 357.465 125.44ZM427.315 125.44C420.355 125.44 414.275 123.8 409.075 120.52C403.955 117.16 400.435 112.64 398.515 106.96L410.275 101.32C411.955 105 414.275 107.88 417.235 109.96C420.275 112.04 423.635 113.08 427.315 113.08C430.195 113.08 432.475 112.44 434.155 111.16C435.835 109.88 436.675 108.2 436.675 106.12C436.675 104.84 436.315 103.8 435.595 103C434.955 102.12 434.035 101.4 432.835 100.84C431.715 100.2 430.475 99.68 429.115 99.28L418.435 96.28C412.915 94.68 408.715 92.24 405.835 88.96C403.035 85.68 401.635 81.8 401.635 77.32C401.635 73.32 402.635 69.84 404.635 66.88C406.715 63.84 409.555 61.48 413.155 59.8C416.835 58.12 421.035 57.28 425.755 57.28C431.915 57.28 437.355 58.76 442.075 61.72C446.795 64.68 450.155 68.84 452.155 74.2L440.155 79.84C439.035 76.88 437.155 74.52 434.515 72.76C431.875 71 428.915 70.12 425.635 70.12C422.995 70.12 420.915 70.72 419.395 71.92C417.875 73.12 417.115 74.68 417.115 76.6C417.115 77.8 417.435 78.84 418.075 79.72C418.715 80.6 419.595 81.32 420.715 81.88C421.915 82.44 423.275 82.96 424.795 83.44L435.235 86.56C440.595 88.16 444.715 90.56 447.595 93.76C450.555 96.96 452.035 100.88 452.035 105.52C452.035 109.44 450.995 112.92 448.915 115.96C446.835 118.92 443.955 121.24 440.275 122.92C436.595 124.6 432.275 125.44 427.315 125.44ZM490.275 125.44C483.555 125.44 477.675 123.92 472.635 120.88C467.595 117.84 463.675 113.72 460.875 108.52C458.075 103.32 456.675 97.56 456.675 91.24C456.675 84.68 458.075 78.88 460.875 73.84C463.755 68.72 467.635 64.68 472.515 61.72C477.475 58.76 482.995 57.28 489.075 57.28C494.195 57.28 498.675 58.12 502.515 59.8C506.435 61.48 509.755 63.8 512.475 66.76C515.195 69.72 517.275 73.12 518.715 76.96C520.155 80.72 520.875 84.8 520.875 89.2C520.875 90.32 520.795 91.48 520.635 92.68C520.555 93.88 520.355 94.92 520.035 95.8H469.635V83.8H511.155L503.715 89.44C504.435 85.76 504.235 82.48 503.115 79.6C502.075 76.72 500.315 74.44 497.835 72.76C495.435 71.08 492.515 70.24 489.075 70.24C485.795 70.24 482.875 71.08 480.315 72.76C477.755 74.36 475.795 76.76 474.435 79.96C473.155 83.08 472.675 86.88 472.995 91.36C472.675 95.36 473.195 98.92 474.555 102.04C475.995 105.08 478.075 107.44 480.795 109.12C483.595 110.8 486.795 111.64 490.395 111.64C493.995 111.64 497.035 110.88 499.515 109.36C502.075 107.84 504.075 105.8 505.515 103.24L518.235 109.48C516.955 112.6 514.955 115.36 512.235 117.76C509.515 120.16 506.275 122.04 502.515 123.4C498.835 124.76 494.755 125.44 490.275 125.44ZM527.992 124V58.72H542.752V73.84L541.072 71.32C542.272 66.6 544.672 63.08 548.272 60.76C551.872 58.44 556.112 57.28 560.992 57.28C566.352 57.28 571.072 58.68 575.152 61.48C579.232 64.28 581.872 67.96 583.072 72.52L578.632 72.88C580.632 67.68 583.632 63.8 587.632 61.24C591.632 58.6 596.232 57.28 601.432 57.28C606.072 57.28 610.192 58.32 613.792 60.4C617.472 62.48 620.352 65.4 622.432 69.16C624.512 72.84 625.552 77.12 625.552 82V124H609.832V85.72C609.832 82.84 609.312 80.36 608.272 78.28C607.232 76.2 605.792 74.6 603.952 73.48C602.112 72.28 599.872 71.68 597.232 71.68C594.752 71.68 592.552 72.28 590.632 73.48C588.712 74.6 587.232 76.2 586.192 78.28C585.152 80.36 584.632 82.84 584.632 85.72V124H568.912V85.72C568.912 82.84 568.392 80.36 567.352 78.28C566.312 76.2 564.832 74.6 562.912 73.48C561.072 72.28 558.872 71.68 556.312 71.68C553.832 71.68 551.632 72.28 549.712 73.48C547.792 74.6 546.312 76.2 545.272 78.28C544.232 80.36 543.712 82.84 543.712 85.72V124H527.992ZM665.971 125.44C659.571 125.44 653.731 123.96 648.451 121C643.251 118.04 639.091 114 635.971 108.88C632.931 103.76 631.411 97.92 631.411 91.36C631.411 84.8 632.931 78.96 635.971 73.84C639.091 68.72 643.251 64.68 648.451 61.72C653.651 58.76 659.491 57.28 665.971 57.28C672.371 57.28 678.171 58.76 683.371 61.72C688.571 64.68 692.691 68.72 695.731 73.84C698.851 78.88 700.411 84.72 700.411 91.36C700.411 97.92 698.851 103.76 695.731 108.88C692.611 114 688.451 118.04 683.251 121C678.051 123.96 672.291 125.44 665.971 125.44ZM665.971 111.04C669.491 111.04 672.571 110.2 675.211 108.52C677.931 106.84 680.051 104.52 681.571 101.56C683.171 98.52 683.971 95.12 683.971 91.36C683.971 87.52 683.171 84.16 681.571 81.28C680.051 78.32 677.931 76 675.211 74.32C672.571 72.56 669.491 71.68 665.971 71.68C662.371 71.68 659.211 72.56 656.491 74.32C653.771 76 651.611 78.32 650.011 81.28C648.491 84.16 647.731 87.52 647.731 91.36C647.731 95.12 648.491 98.52 650.011 101.56C651.611 104.52 653.771 106.84 656.491 108.52C659.211 110.2 662.371 111.04 665.971 111.04ZM737.892 125.44C731.572 125.44 725.932 123.96 720.972 121C716.012 117.96 712.092 113.84 709.212 108.64C706.332 103.44 704.892 97.68 704.892 91.36C704.892 84.96 706.332 79.2 709.212 74.08C712.092 68.96 716.012 64.88 720.972 61.84C726.012 58.8 731.612 57.28 737.772 57.28C742.732 57.28 747.132 58.28 750.972 60.28C754.892 62.2 757.972 64.92 760.212 68.44L757.812 71.68V33.16H773.532V124H758.652V111.4L760.332 114.52C758.092 118.04 754.972 120.76 750.972 122.68C746.972 124.52 742.612 125.44 737.892 125.44ZM739.572 111.04C743.172 111.04 746.332 110.2 749.052 108.52C751.772 106.84 753.892 104.52 755.412 101.56C757.012 98.6 757.812 95.2 757.812 91.36C757.812 87.6 757.012 84.24 755.412 81.28C753.892 78.24 751.772 75.88 749.052 74.2C746.332 72.52 743.172 71.68 739.572 71.68C736.052 71.68 732.892 72.56 730.092 74.32C727.292 76 725.092 78.32 723.492 81.28C721.972 84.16 721.212 87.52 721.212 91.36C721.212 95.2 721.972 98.6 723.492 101.56C725.092 104.52 727.292 106.84 730.092 108.52C732.892 110.2 736.052 111.04 739.572 111.04Z" fill="white"/>
</svg>
