<svg width="744" height="160" viewBox="0 0 744 160" fill="none" xmlns="http://www.w3.org/2000/svg">
<path fill-rule="evenodd" clip-rule="evenodd" d="M62.5 0H135V72.5H62.5V0ZM72.5 10V62.5H125V10H72.5Z" fill="black"/>
<path fill-rule="evenodd" clip-rule="evenodd" d="M0 25H72.5V97.5H0V25ZM10 35V87.5H62.5V35H10Z" fill="black"/>
<path fill-rule="evenodd" clip-rule="evenodd" d="M87.5 62.5H160V135H87.5V62.5ZM97.5 72.5V125H150V72.5H97.5Z" fill="black"/>
<path fill-rule="evenodd" clip-rule="evenodd" d="M25 87.5H97.5V160H25V87.5ZM35 97.5V150H87.5V97.5H35Z" fill="black"/>
<path d="M204.64 128.5V39.1H217.36L266.56 105.34L259.96 106.66V39.1H276.28V128.5H263.44L214.96 61.78L220.96 60.46V128.5H204.64ZM318.425 129.94C311.705 129.94 305.825 128.42 300.785 125.38C295.745 122.34 291.825 118.22 289.025 113.02C286.225 107.82 284.825 102.06 284.825 95.74C284.825 89.18 286.225 83.38 289.025 78.34C291.905 73.22 295.785 69.18 300.665 66.22C305.625 63.26 311.145 61.78 317.225 61.78C322.345 61.78 326.825 62.62 330.665 64.3C334.585 65.98 337.905 68.3 340.625 71.26C343.345 74.22 345.425 77.62 346.865 81.46C348.305 85.22 349.025 89.3 349.025 93.7C349.025 94.82 348.945 95.98 348.785 97.18C348.705 98.38 348.505 99.42 348.185 100.3H297.785V88.3H339.305L331.865 93.94C332.585 90.26 332.385 86.98 331.265 84.1C330.225 81.22 328.465 78.94 325.985 77.26C323.585 75.58 320.665 74.74 317.225 74.74C313.945 74.74 311.025 75.58 308.465 77.26C305.905 78.86 303.945 81.26 302.585 84.46C301.305 87.58 300.825 91.38 301.145 95.86C300.825 99.86 301.345 103.42 302.705 106.54C304.145 109.58 306.225 111.94 308.945 113.62C311.745 115.3 314.945 116.14 318.545 116.14C322.145 116.14 325.185 115.38 327.665 113.86C330.225 112.34 332.225 110.3 333.665 107.74L346.385 113.98C345.105 117.1 343.105 119.86 340.385 122.26C337.665 124.66 334.425 126.54 330.665 127.9C326.985 129.26 322.905 129.94 318.425 129.94ZM379.422 129.94C374.382 129.94 369.982 128.82 366.222 126.58C362.542 124.34 359.702 121.22 357.702 117.22C355.782 113.22 354.822 108.54 354.822 103.18V63.22H370.542V101.86C370.542 104.58 371.062 106.98 372.102 109.06C373.222 111.06 374.782 112.66 376.782 113.86C378.862 114.98 381.182 115.54 383.742 115.54C386.302 115.54 388.582 114.98 390.582 113.86C392.582 112.66 394.142 111.02 395.262 108.94C396.382 106.86 396.942 104.38 396.942 101.5V63.22H412.662V128.5H397.782V115.66L399.102 117.94C397.582 121.94 395.062 124.94 391.542 126.94C388.102 128.94 384.062 129.94 379.422 129.94ZM453.435 129.94C446.715 129.94 440.835 128.42 435.795 125.38C430.755 122.34 426.835 118.22 424.035 113.02C421.235 107.82 419.835 102.06 419.835 95.74C419.835 89.18 421.235 83.38 424.035 78.34C426.915 73.22 430.795 69.18 435.675 66.22C440.635 63.26 446.155 61.78 452.235 61.78C457.355 61.78 461.835 62.62 465.675 64.3C469.595 65.98 472.915 68.3 475.635 71.26C478.355 74.22 480.435 77.62 481.875 81.46C483.315 85.22 484.035 89.3 484.035 93.7C484.035 94.82 483.955 95.98 483.795 97.18C483.715 98.38 483.515 99.42 483.195 100.3H432.795V88.3H474.315L466.875 93.94C467.595 90.26 467.395 86.98 466.275 84.1C465.235 81.22 463.475 78.94 460.995 77.26C458.595 75.58 455.675 74.74 452.235 74.74C448.955 74.74 446.035 75.58 443.475 77.26C440.915 78.86 438.955 81.26 437.595 84.46C436.315 87.58 435.835 91.38 436.155 95.86C435.835 99.86 436.355 103.42 437.715 106.54C439.155 109.58 441.235 111.94 443.955 113.62C446.755 115.3 449.955 116.14 453.555 116.14C457.155 116.14 460.195 115.38 462.675 113.86C465.235 112.34 467.235 110.3 468.675 107.74L481.395 113.98C480.115 117.1 478.115 119.86 475.395 122.26C472.675 124.66 469.435 126.54 465.675 127.9C461.995 129.26 457.915 129.94 453.435 129.94ZM491.151 128.5V63.22H505.911V78.34L504.231 75.82C505.431 71.1 507.831 67.58 511.431 65.26C515.031 62.94 519.271 61.78 524.151 61.78C529.511 61.78 534.231 63.18 538.311 65.98C542.391 68.78 545.031 72.46 546.231 77.02L541.791 77.38C543.791 72.18 546.791 68.3 550.791 65.74C554.791 63.1 559.391 61.78 564.591 61.78C569.231 61.78 573.351 62.82 576.951 64.9C580.631 66.98 583.511 69.9 585.591 73.66C587.671 77.34 588.711 81.62 588.711 86.5V128.5H572.991V90.22C572.991 87.34 572.471 84.86 571.431 82.78C570.391 80.7 568.951 79.1 567.111 77.98C565.271 76.78 563.031 76.18 560.391 76.18C557.911 76.18 555.711 76.78 553.791 77.98C551.871 79.1 550.391 80.7 549.351 82.78C548.311 84.86 547.791 87.34 547.791 90.22V128.5H532.071V90.22C532.071 87.34 531.551 84.86 530.511 82.78C529.471 80.7 527.991 79.1 526.071 77.98C524.231 76.78 522.031 76.18 519.471 76.18C516.991 76.18 514.791 76.78 512.871 77.98C510.951 79.1 509.471 80.7 508.431 82.78C507.391 84.86 506.871 87.34 506.871 90.22V128.5H491.151ZM629.131 129.94C622.731 129.94 616.891 128.46 611.611 125.5C606.411 122.54 602.251 118.5 599.131 113.38C596.091 108.26 594.571 102.42 594.571 95.86C594.571 89.3 596.091 83.46 599.131 78.34C602.251 73.22 606.411 69.18 611.611 66.22C616.811 63.26 622.651 61.78 629.131 61.78C635.531 61.78 641.331 63.26 646.531 66.22C651.731 69.18 655.851 73.22 658.891 78.34C662.011 83.38 663.571 89.22 663.571 95.86C663.571 102.42 662.011 108.26 658.891 113.38C655.771 118.5 651.611 122.54 646.411 125.5C641.211 128.46 635.451 129.94 629.131 129.94ZM629.131 115.54C632.651 115.54 635.731 114.7 638.371 113.02C641.091 111.34 643.211 109.02 644.731 106.06C646.331 103.02 647.131 99.62 647.131 95.86C647.131 92.02 646.331 88.66 644.731 85.78C643.211 82.82 641.091 80.5 638.371 78.82C635.731 77.06 632.651 76.18 629.131 76.18C625.531 76.18 622.371 77.06 619.651 78.82C616.931 80.5 614.771 82.82 613.171 85.78C611.651 88.66 610.891 92.02 610.891 95.86C610.891 99.62 611.651 103.02 613.171 106.06C614.771 109.02 616.931 111.34 619.651 113.02C622.371 114.7 625.531 115.54 629.131 115.54ZM701.052 129.94C694.732 129.94 689.092 128.46 684.132 125.5C679.172 122.46 675.252 118.34 672.372 113.14C669.492 107.94 668.052 102.18 668.052 95.86C668.052 89.46 669.492 83.7 672.372 78.58C675.252 73.46 679.172 69.38 684.132 66.34C689.172 63.3 694.772 61.78 700.932 61.78C705.892 61.78 710.292 62.78 714.132 64.78C718.052 66.7 721.132 69.42 723.372 72.94L720.972 76.18V37.66H736.692V128.5H721.812V115.9L723.492 119.02C721.252 122.54 718.132 125.26 714.132 127.18C710.132 129.02 705.772 129.94 701.052 129.94ZM702.732 115.54C706.332 115.54 709.492 114.7 712.212 113.02C714.932 111.34 717.052 109.02 718.572 106.06C720.172 103.1 720.972 99.7 720.972 95.86C720.972 92.1 720.172 88.74 718.572 85.78C717.052 82.74 714.932 80.38 712.212 78.7C709.492 77.02 706.332 76.18 702.732 76.18C699.212 76.18 696.052 77.06 693.252 78.82C690.452 80.5 688.252 82.82 686.652 85.78C685.132 88.66 684.372 92.02 684.372 95.86C684.372 99.7 685.132 103.1 686.652 106.06C688.252 109.02 690.452 111.34 693.252 113.02C696.052 114.7 699.212 115.54 702.732 115.54Z" fill="black"/>
</svg>
