<svg width="779" height="160" viewBox="0 0 779 160" fill="none" xmlns="http://www.w3.org/2000/svg">
<path fill-rule="evenodd" clip-rule="evenodd" d="M62.5 0H135V72.5H62.5V0ZM72.5 10V62.5H125V10H72.5Z" fill="white"/>
<path fill-rule="evenodd" clip-rule="evenodd" d="M0 25H72.5V97.5H0V25ZM10 35V87.5H62.5V35H10Z" fill="white"/>
<path fill-rule="evenodd" clip-rule="evenodd" d="M87.5 62.5H160V135H87.5V62.5ZM97.5 72.5V125H150V72.5H97.5Z" fill="white"/>
<path fill-rule="evenodd" clip-rule="evenodd" d="M25 87.5H97.5V160H25V87.5ZM35 97.5V150H87.5V97.5H35Z" fill="white"/>
<path d="M204.64 128.5V39.1H238C244.08 39.1 249.44 40.22 254.08 42.46C258.8 44.62 262.48 47.82 265.12 52.06C267.76 56.22 269.08 61.3 269.08 67.3C269.08 73.22 267.72 78.3 265 82.54C262.36 86.7 258.72 89.9 254.08 92.14C249.44 94.38 244.08 95.5 238 95.5H220.96V128.5H204.64ZM220.96 81.1H238.24C241.2 81.1 243.76 80.54 245.92 79.42C248.08 78.22 249.76 76.58 250.96 74.5C252.16 72.42 252.76 70.02 252.76 67.3C252.76 64.5 252.16 62.1 250.96 60.1C249.76 58.02 248.08 56.42 245.92 55.3C243.76 54.1 241.2 53.5 238.24 53.5H220.96V81.1ZM276.332 128.5V37.66H292.052V76.06L289.892 73.78C291.412 69.86 293.892 66.9 297.332 64.9C300.852 62.82 304.932 61.78 309.573 61.78C314.373 61.78 318.613 62.82 322.293 64.9C326.053 66.98 328.972 69.9 331.052 73.66C333.133 77.34 334.173 81.62 334.173 86.5V128.5H318.453V90.22C318.453 87.34 317.893 84.86 316.773 82.78C315.652 80.7 314.092 79.1 312.093 77.98C310.172 76.78 307.892 76.18 305.252 76.18C302.692 76.18 300.412 76.78 298.412 77.98C296.412 79.1 294.852 80.7 293.732 82.78C292.612 84.86 292.052 87.34 292.052 90.22V128.5H276.332ZM362.465 129.94C357.905 129.94 353.945 129.18 350.585 127.66C347.225 126.14 344.625 123.98 342.785 121.18C340.945 118.3 340.025 114.98 340.025 111.22C340.025 107.62 340.825 104.42 342.425 101.62C344.025 98.74 346.505 96.34 349.865 94.42C353.225 92.5 357.465 91.14 362.585 90.34L383.945 86.86V98.86L365.585 101.98C362.465 102.54 360.145 103.54 358.625 104.98C357.105 106.42 356.345 108.3 356.345 110.62C356.345 112.86 357.185 114.66 358.865 116.02C360.625 117.3 362.785 117.94 365.345 117.94C368.625 117.94 371.505 117.26 373.985 115.9C376.545 114.46 378.505 112.5 379.865 110.02C381.305 107.54 382.025 104.82 382.025 101.86V85.06C382.025 82.26 380.905 79.94 378.665 78.1C376.505 76.18 373.625 75.22 370.025 75.22C366.665 75.22 363.665 76.14 361.025 77.98C358.465 79.74 356.585 82.1 355.385 85.06L342.545 78.82C343.825 75.38 345.825 72.42 348.545 69.94C351.345 67.38 354.625 65.38 358.385 63.94C362.145 62.5 366.225 61.78 370.625 61.78C375.985 61.78 380.705 62.78 384.785 64.78C388.865 66.7 392.025 69.42 394.265 72.94C396.585 76.38 397.745 80.42 397.745 85.06V128.5H382.865V117.34L386.225 117.1C384.545 119.9 382.545 122.26 380.225 124.18C377.905 126.02 375.265 127.46 372.305 128.5C369.345 129.46 366.065 129.94 362.465 129.94ZM432.315 129.94C425.355 129.94 419.275 128.3 414.075 125.02C408.955 121.66 405.435 117.14 403.515 111.46L415.275 105.82C416.955 109.5 419.275 112.38 422.235 114.46C425.275 116.54 428.635 117.58 432.315 117.58C435.195 117.58 437.475 116.94 439.155 115.66C440.835 114.38 441.675 112.7 441.675 110.62C441.675 109.34 441.315 108.3 440.595 107.5C439.955 106.62 439.035 105.9 437.835 105.34C436.715 104.7 435.475 104.18 434.115 103.78L423.435 100.78C417.915 99.18 413.715 96.74 410.835 93.46C408.035 90.18 406.635 86.3 406.635 81.82C406.635 77.82 407.635 74.34 409.635 71.38C411.715 68.34 414.555 65.98 418.155 64.3C421.835 62.62 426.035 61.78 430.755 61.78C436.915 61.78 442.355 63.26 447.075 66.22C451.795 69.18 455.155 73.34 457.155 78.7L445.155 84.34C444.035 81.38 442.155 79.02 439.515 77.26C436.875 75.5 433.915 74.62 430.635 74.62C427.995 74.62 425.915 75.22 424.395 76.42C422.875 77.62 422.115 79.18 422.115 81.1C422.115 82.3 422.435 83.34 423.075 84.22C423.715 85.1 424.595 85.82 425.715 86.38C426.915 86.94 428.275 87.46 429.795 87.94L440.235 91.06C445.595 92.66 449.715 95.06 452.595 98.26C455.555 101.46 457.035 105.38 457.035 110.02C457.035 113.94 455.995 117.42 453.915 120.46C451.835 123.42 448.955 125.74 445.275 127.42C441.595 129.1 437.275 129.94 432.315 129.94ZM495.275 129.94C488.555 129.94 482.675 128.42 477.635 125.38C472.595 122.34 468.675 118.22 465.875 113.02C463.075 107.82 461.675 102.06 461.675 95.74C461.675 89.18 463.075 83.38 465.875 78.34C468.755 73.22 472.635 69.18 477.515 66.22C482.475 63.26 487.995 61.78 494.075 61.78C499.195 61.78 503.675 62.62 507.515 64.3C511.435 65.98 514.755 68.3 517.475 71.26C520.195 74.22 522.275 77.62 523.715 81.46C525.155 85.22 525.875 89.3 525.875 93.7C525.875 94.82 525.795 95.98 525.635 97.18C525.555 98.38 525.355 99.42 525.035 100.3H474.635V88.3H516.155L508.715 93.94C509.435 90.26 509.235 86.98 508.115 84.1C507.075 81.22 505.315 78.94 502.835 77.26C500.435 75.58 497.515 74.74 494.075 74.74C490.795 74.74 487.875 75.58 485.315 77.26C482.755 78.86 480.795 81.26 479.435 84.46C478.155 87.58 477.675 91.38 477.995 95.86C477.675 99.86 478.195 103.42 479.555 106.54C480.995 109.58 483.075 111.94 485.795 113.62C488.595 115.3 491.795 116.14 495.395 116.14C498.995 116.14 502.035 115.38 504.515 113.86C507.075 112.34 509.075 110.3 510.515 107.74L523.235 113.98C521.955 117.1 519.955 119.86 517.235 122.26C514.515 124.66 511.275 126.54 507.515 127.9C503.835 129.26 499.755 129.94 495.275 129.94ZM532.992 128.5V63.22H547.752V78.34L546.072 75.82C547.272 71.1 549.672 67.58 553.272 65.26C556.872 62.94 561.112 61.78 565.992 61.78C571.352 61.78 576.072 63.18 580.152 65.98C584.232 68.78 586.872 72.46 588.072 77.02L583.632 77.38C585.632 72.18 588.632 68.3 592.632 65.74C596.632 63.1 601.232 61.78 606.432 61.78C611.072 61.78 615.192 62.82 618.792 64.9C622.472 66.98 625.352 69.9 627.432 73.66C629.512 77.34 630.552 81.62 630.552 86.5V128.5H614.832V90.22C614.832 87.34 614.312 84.86 613.272 82.78C612.232 80.7 610.792 79.1 608.952 77.98C607.112 76.78 604.872 76.18 602.232 76.18C599.752 76.18 597.552 76.78 595.632 77.98C593.712 79.1 592.232 80.7 591.192 82.78C590.152 84.86 589.632 87.34 589.632 90.22V128.5H573.912V90.22C573.912 87.34 573.392 84.86 572.352 82.78C571.312 80.7 569.832 79.1 567.912 77.98C566.072 76.78 563.872 76.18 561.312 76.18C558.832 76.18 556.632 76.78 554.712 77.98C552.792 79.1 551.312 80.7 550.272 82.78C549.232 84.86 548.712 87.34 548.712 90.22V128.5H532.992ZM670.971 129.94C664.571 129.94 658.731 128.46 653.451 125.5C648.251 122.54 644.091 118.5 640.971 113.38C637.931 108.26 636.411 102.42 636.411 95.86C636.411 89.3 637.931 83.46 640.971 78.34C644.091 73.22 648.251 69.18 653.451 66.22C658.651 63.26 664.491 61.78 670.971 61.78C677.371 61.78 683.171 63.26 688.371 66.22C693.571 69.18 697.691 73.22 700.731 78.34C703.851 83.38 705.411 89.22 705.411 95.86C705.411 102.42 703.851 108.26 700.731 113.38C697.611 118.5 693.451 122.54 688.251 125.5C683.051 128.46 677.291 129.94 670.971 129.94ZM670.971 115.54C674.491 115.54 677.571 114.7 680.211 113.02C682.931 111.34 685.051 109.02 686.571 106.06C688.171 103.02 688.971 99.62 688.971 95.86C688.971 92.02 688.171 88.66 686.571 85.78C685.051 82.82 682.931 80.5 680.211 78.82C677.571 77.06 674.491 76.18 670.971 76.18C667.371 76.18 664.211 77.06 661.491 78.82C658.771 80.5 656.611 82.82 655.011 85.78C653.491 88.66 652.731 92.02 652.731 95.86C652.731 99.62 653.491 103.02 655.011 106.06C656.611 109.02 658.771 111.34 661.491 113.02C664.211 114.7 667.371 115.54 670.971 115.54ZM742.892 129.94C736.572 129.94 730.932 128.46 725.972 125.5C721.012 122.46 717.092 118.34 714.212 113.14C711.332 107.94 709.892 102.18 709.892 95.86C709.892 89.46 711.332 83.7 714.212 78.58C717.092 73.46 721.012 69.38 725.972 66.34C731.012 63.3 736.612 61.78 742.772 61.78C747.732 61.78 752.132 62.78 755.972 64.78C759.892 66.7 762.972 69.42 765.212 72.94L762.812 76.18V37.66H778.532V128.5H763.652V115.9L765.332 119.02C763.092 122.54 759.972 125.26 755.972 127.18C751.972 129.02 747.612 129.94 742.892 129.94ZM744.572 115.54C748.172 115.54 751.332 114.7 754.052 113.02C756.772 111.34 758.892 109.02 760.412 106.06C762.012 103.1 762.812 99.7 762.812 95.86C762.812 92.1 762.012 88.74 760.412 85.78C758.892 82.74 756.772 80.38 754.052 78.7C751.332 77.02 748.172 76.18 744.572 76.18C741.052 76.18 737.892 77.06 735.092 78.82C732.292 80.5 730.092 82.82 728.492 85.78C726.972 88.66 726.212 92.02 726.212 95.86C726.212 99.7 726.972 103.1 728.492 106.06C730.092 109.02 732.292 111.34 735.092 113.02C737.892 114.7 741.052 115.54 744.572 115.54Z" fill="white"/>
</svg>
