<svg width="774" height="152" viewBox="0 0 774 152" fill="none" xmlns="http://www.w3.org/2000/svg">
<rect opacity="0.5" x="62.5" y="1" width="62.5" height="62.5" fill="black"/>
<rect y="26" width="62.5" height="62.5" fill="black"/>
<rect x="87.5" y="63.5" width="62.5" height="62.5" fill="black"/>
<rect opacity="0.5" x="25" y="88.5" width="62.5" height="62.5" fill="black"/>
<path d="M199.64 124.5V35.1H233C239.08 35.1 244.44 36.22 249.08 38.46C253.8 40.62 257.48 43.82 260.12 48.06C262.76 52.22 264.08 57.3 264.08 63.3C264.08 69.22 262.72 74.3 260 78.54C257.36 82.7 253.72 85.9 249.08 88.14C244.44 90.38 239.08 91.5 233 91.5H215.96V124.5H199.64ZM215.96 77.1H233.24C236.2 77.1 238.76 76.54 240.92 75.42C243.08 74.22 244.76 72.58 245.96 70.5C247.16 68.42 247.76 66.02 247.76 63.3C247.76 60.5 247.16 58.1 245.96 56.1C244.76 54.02 243.08 52.42 240.92 51.3C238.76 50.1 236.2 49.5 233.24 49.5H215.96V77.1ZM271.332 124.5V33.66H287.052V72.06L284.892 69.78C286.412 65.86 288.892 62.9 292.332 60.9C295.852 58.82 299.932 57.78 304.573 57.78C309.373 57.78 313.613 58.82 317.293 60.9C321.053 62.98 323.972 65.9 326.052 69.66C328.133 73.34 329.173 77.62 329.173 82.5V124.5H313.453V86.22C313.453 83.34 312.893 80.86 311.773 78.78C310.652 76.7 309.092 75.1 307.093 73.98C305.172 72.78 302.892 72.18 300.252 72.18C297.692 72.18 295.412 72.78 293.412 73.98C291.412 75.1 289.852 76.7 288.732 78.78C287.612 80.86 287.052 83.34 287.052 86.22V124.5H271.332ZM357.465 125.94C352.905 125.94 348.945 125.18 345.585 123.66C342.225 122.14 339.625 119.98 337.785 117.18C335.945 114.3 335.025 110.98 335.025 107.22C335.025 103.62 335.825 100.42 337.425 97.62C339.025 94.74 341.505 92.34 344.865 90.42C348.225 88.5 352.465 87.14 357.585 86.34L378.945 82.86V94.86L360.585 97.98C357.465 98.54 355.145 99.54 353.625 100.98C352.105 102.42 351.345 104.3 351.345 106.62C351.345 108.86 352.185 110.66 353.865 112.02C355.625 113.3 357.785 113.94 360.345 113.94C363.625 113.94 366.505 113.26 368.985 111.9C371.545 110.46 373.505 108.5 374.865 106.02C376.305 103.54 377.025 100.82 377.025 97.86V81.06C377.025 78.26 375.905 75.94 373.665 74.1C371.505 72.18 368.625 71.22 365.025 71.22C361.665 71.22 358.665 72.14 356.025 73.98C353.465 75.74 351.585 78.1 350.385 81.06L337.545 74.82C338.825 71.38 340.825 68.42 343.545 65.94C346.345 63.38 349.625 61.38 353.385 59.94C357.145 58.5 361.225 57.78 365.625 57.78C370.985 57.78 375.705 58.78 379.785 60.78C383.865 62.7 387.025 65.42 389.265 68.94C391.585 72.38 392.745 76.42 392.745 81.06V124.5H377.865V113.34L381.225 113.1C379.545 115.9 377.545 118.26 375.225 120.18C372.905 122.02 370.265 123.46 367.305 124.5C364.345 125.46 361.065 125.94 357.465 125.94ZM427.315 125.94C420.355 125.94 414.275 124.3 409.075 121.02C403.955 117.66 400.435 113.14 398.515 107.46L410.275 101.82C411.955 105.5 414.275 108.38 417.235 110.46C420.275 112.54 423.635 113.58 427.315 113.58C430.195 113.58 432.475 112.94 434.155 111.66C435.835 110.38 436.675 108.7 436.675 106.62C436.675 105.34 436.315 104.3 435.595 103.5C434.955 102.62 434.035 101.9 432.835 101.34C431.715 100.7 430.475 100.18 429.115 99.78L418.435 96.78C412.915 95.18 408.715 92.74 405.835 89.46C403.035 86.18 401.635 82.3 401.635 77.82C401.635 73.82 402.635 70.34 404.635 67.38C406.715 64.34 409.555 61.98 413.155 60.3C416.835 58.62 421.035 57.78 425.755 57.78C431.915 57.78 437.355 59.26 442.075 62.22C446.795 65.18 450.155 69.34 452.155 74.7L440.155 80.34C439.035 77.38 437.155 75.02 434.515 73.26C431.875 71.5 428.915 70.62 425.635 70.62C422.995 70.62 420.915 71.22 419.395 72.42C417.875 73.62 417.115 75.18 417.115 77.1C417.115 78.3 417.435 79.34 418.075 80.22C418.715 81.1 419.595 81.82 420.715 82.38C421.915 82.94 423.275 83.46 424.795 83.94L435.235 87.06C440.595 88.66 444.715 91.06 447.595 94.26C450.555 97.46 452.035 101.38 452.035 106.02C452.035 109.94 450.995 113.42 448.915 116.46C446.835 119.42 443.955 121.74 440.275 123.42C436.595 125.1 432.275 125.94 427.315 125.94ZM490.275 125.94C483.555 125.94 477.675 124.42 472.635 121.38C467.595 118.34 463.675 114.22 460.875 109.02C458.075 103.82 456.675 98.06 456.675 91.74C456.675 85.18 458.075 79.38 460.875 74.34C463.755 69.22 467.635 65.18 472.515 62.22C477.475 59.26 482.995 57.78 489.075 57.78C494.195 57.78 498.675 58.62 502.515 60.3C506.435 61.98 509.755 64.3 512.475 67.26C515.195 70.22 517.275 73.62 518.715 77.46C520.155 81.22 520.875 85.3 520.875 89.7C520.875 90.82 520.795 91.98 520.635 93.18C520.555 94.38 520.355 95.42 520.035 96.3H469.635V84.3H511.155L503.715 89.94C504.435 86.26 504.235 82.98 503.115 80.1C502.075 77.22 500.315 74.94 497.835 73.26C495.435 71.58 492.515 70.74 489.075 70.74C485.795 70.74 482.875 71.58 480.315 73.26C477.755 74.86 475.795 77.26 474.435 80.46C473.155 83.58 472.675 87.38 472.995 91.86C472.675 95.86 473.195 99.42 474.555 102.54C475.995 105.58 478.075 107.94 480.795 109.62C483.595 111.3 486.795 112.14 490.395 112.14C493.995 112.14 497.035 111.38 499.515 109.86C502.075 108.34 504.075 106.3 505.515 103.74L518.235 109.98C516.955 113.1 514.955 115.86 512.235 118.26C509.515 120.66 506.275 122.54 502.515 123.9C498.835 125.26 494.755 125.94 490.275 125.94ZM527.992 124.5V59.22H542.752V74.34L541.072 71.82C542.272 67.1 544.672 63.58 548.272 61.26C551.872 58.94 556.112 57.78 560.992 57.78C566.352 57.78 571.072 59.18 575.152 61.98C579.232 64.78 581.872 68.46 583.072 73.02L578.632 73.38C580.632 68.18 583.632 64.3 587.632 61.74C591.632 59.1 596.232 57.78 601.432 57.78C606.072 57.78 610.192 58.82 613.792 60.9C617.472 62.98 620.352 65.9 622.432 69.66C624.512 73.34 625.552 77.62 625.552 82.5V124.5H609.832V86.22C609.832 83.34 609.312 80.86 608.272 78.78C607.232 76.7 605.792 75.1 603.952 73.98C602.112 72.78 599.872 72.18 597.232 72.18C594.752 72.18 592.552 72.78 590.632 73.98C588.712 75.1 587.232 76.7 586.192 78.78C585.152 80.86 584.632 83.34 584.632 86.22V124.5H568.912V86.22C568.912 83.34 568.392 80.86 567.352 78.78C566.312 76.7 564.832 75.1 562.912 73.98C561.072 72.78 558.872 72.18 556.312 72.18C553.832 72.18 551.632 72.78 549.712 73.98C547.792 75.1 546.312 76.7 545.272 78.78C544.232 80.86 543.712 83.34 543.712 86.22V124.5H527.992ZM665.971 125.94C659.571 125.94 653.731 124.46 648.451 121.5C643.251 118.54 639.091 114.5 635.971 109.38C632.931 104.26 631.411 98.42 631.411 91.86C631.411 85.3 632.931 79.46 635.971 74.34C639.091 69.22 643.251 65.18 648.451 62.22C653.651 59.26 659.491 57.78 665.971 57.78C672.371 57.78 678.171 59.26 683.371 62.22C688.571 65.18 692.691 69.22 695.731 74.34C698.851 79.38 700.411 85.22 700.411 91.86C700.411 98.42 698.851 104.26 695.731 109.38C692.611 114.5 688.451 118.54 683.251 121.5C678.051 124.46 672.291 125.94 665.971 125.94ZM665.971 111.54C669.491 111.54 672.571 110.7 675.211 109.02C677.931 107.34 680.051 105.02 681.571 102.06C683.171 99.02 683.971 95.62 683.971 91.86C683.971 88.02 683.171 84.66 681.571 81.78C680.051 78.82 677.931 76.5 675.211 74.82C672.571 73.06 669.491 72.18 665.971 72.18C662.371 72.18 659.211 73.06 656.491 74.82C653.771 76.5 651.611 78.82 650.011 81.78C648.491 84.66 647.731 88.02 647.731 91.86C647.731 95.62 648.491 99.02 650.011 102.06C651.611 105.02 653.771 107.34 656.491 109.02C659.211 110.7 662.371 111.54 665.971 111.54ZM737.892 125.94C731.572 125.94 725.932 124.46 720.972 121.5C716.012 118.46 712.092 114.34 709.212 109.14C706.332 103.94 704.892 98.18 704.892 91.86C704.892 85.46 706.332 79.7 709.212 74.58C712.092 69.46 716.012 65.38 720.972 62.34C726.012 59.3 731.612 57.78 737.772 57.78C742.732 57.78 747.132 58.78 750.972 60.78C754.892 62.7 757.972 65.42 760.212 68.94L757.812 72.18V33.66H773.532V124.5H758.652V111.9L760.332 115.02C758.092 118.54 754.972 121.26 750.972 123.18C746.972 125.02 742.612 125.94 737.892 125.94ZM739.572 111.54C743.172 111.54 746.332 110.7 749.052 109.02C751.772 107.34 753.892 105.02 755.412 102.06C757.012 99.1 757.812 95.7 757.812 91.86C757.812 88.1 757.012 84.74 755.412 81.78C753.892 78.74 751.772 76.38 749.052 74.7C746.332 73.02 743.172 72.18 739.572 72.18C736.052 72.18 732.892 73.06 730.092 74.82C727.292 76.5 725.092 78.82 723.492 81.78C721.972 84.66 721.212 88.02 721.212 91.86C721.212 95.7 721.972 99.1 723.492 102.06C725.092 105.02 727.292 107.34 730.092 109.02C732.892 110.7 736.052 111.54 739.572 111.54Z" fill="black"/>
</svg>
