<svg width="739" height="151" viewBox="0 0 739 151" fill="none" xmlns="http://www.w3.org/2000/svg">
<rect opacity="0.5" x="62.5" y="0.5" width="62.5" height="62.5" fill="#BCBDC5"/>
<rect y="25.5" width="62.5" height="62.5" fill="#BCBDC5"/>
<rect x="87.5" y="63" width="62.5" height="62.5" fill="#BCBDC5"/>
<rect opacity="0.5" x="25" y="88" width="62.5" height="62.5" fill="#BCBDC5"/>
<path d="M199.64 124V34.6H212.36L261.56 100.84L254.96 102.16V34.6H271.28V124H258.44L209.96 57.28L215.96 55.96V124H199.64ZM313.425 125.44C306.705 125.44 300.825 123.92 295.785 120.88C290.745 117.84 286.825 113.72 284.025 108.52C281.225 103.32 279.825 97.56 279.825 91.24C279.825 84.68 281.225 78.88 284.025 73.84C286.905 68.72 290.785 64.68 295.665 61.72C300.625 58.76 306.145 57.28 312.225 57.28C317.345 57.28 321.825 58.12 325.665 59.8C329.585 61.48 332.905 63.8 335.625 66.76C338.345 69.72 340.425 73.12 341.865 76.96C343.305 80.72 344.025 84.8 344.025 89.2C344.025 90.32 343.945 91.48 343.785 92.68C343.705 93.88 343.505 94.92 343.185 95.8H292.785V83.8H334.305L326.865 89.44C327.585 85.76 327.385 82.48 326.265 79.6C325.225 76.72 323.465 74.44 320.985 72.76C318.585 71.08 315.665 70.24 312.225 70.24C308.945 70.24 306.025 71.08 303.465 72.76C300.905 74.36 298.945 76.76 297.585 79.96C296.305 83.08 295.825 86.88 296.145 91.36C295.825 95.36 296.345 98.92 297.705 102.04C299.145 105.08 301.225 107.44 303.945 109.12C306.745 110.8 309.945 111.64 313.545 111.64C317.145 111.64 320.185 110.88 322.665 109.36C325.225 107.84 327.225 105.8 328.665 103.24L341.385 109.48C340.105 112.6 338.105 115.36 335.385 117.76C332.665 120.16 329.425 122.04 325.665 123.4C321.985 124.76 317.905 125.44 313.425 125.44ZM374.422 125.44C369.382 125.44 364.982 124.32 361.222 122.08C357.542 119.84 354.702 116.72 352.702 112.72C350.782 108.72 349.822 104.04 349.822 98.68V58.72H365.542V97.36C365.542 100.08 366.062 102.48 367.102 104.56C368.222 106.56 369.782 108.16 371.782 109.36C373.862 110.48 376.182 111.04 378.742 111.04C381.302 111.04 383.582 110.48 385.582 109.36C387.582 108.16 389.142 106.52 390.262 104.44C391.382 102.36 391.942 99.88 391.942 97V58.72H407.662V124H392.782V111.16L394.102 113.44C392.582 117.44 390.062 120.44 386.542 122.44C383.102 124.44 379.062 125.44 374.422 125.44ZM448.435 125.44C441.715 125.44 435.835 123.92 430.795 120.88C425.755 117.84 421.835 113.72 419.035 108.52C416.235 103.32 414.835 97.56 414.835 91.24C414.835 84.68 416.235 78.88 419.035 73.84C421.915 68.72 425.795 64.68 430.675 61.72C435.635 58.76 441.155 57.28 447.235 57.28C452.355 57.28 456.835 58.12 460.675 59.8C464.595 61.48 467.915 63.8 470.635 66.76C473.355 69.72 475.435 73.12 476.875 76.96C478.315 80.72 479.035 84.8 479.035 89.2C479.035 90.32 478.955 91.48 478.795 92.68C478.715 93.88 478.515 94.92 478.195 95.8H427.795V83.8H469.315L461.875 89.44C462.595 85.76 462.395 82.48 461.275 79.6C460.235 76.72 458.475 74.44 455.995 72.76C453.595 71.08 450.675 70.24 447.235 70.24C443.955 70.24 441.035 71.08 438.475 72.76C435.915 74.36 433.955 76.76 432.595 79.96C431.315 83.08 430.835 86.88 431.155 91.36C430.835 95.36 431.355 98.92 432.715 102.04C434.155 105.08 436.235 107.44 438.955 109.12C441.755 110.8 444.955 111.64 448.555 111.64C452.155 111.64 455.195 110.88 457.675 109.36C460.235 107.84 462.235 105.8 463.675 103.24L476.395 109.48C475.115 112.6 473.115 115.36 470.395 117.76C467.675 120.16 464.435 122.04 460.675 123.4C456.995 124.76 452.915 125.44 448.435 125.44ZM486.151 124V58.72H500.911V73.84L499.231 71.32C500.431 66.6 502.831 63.08 506.431 60.76C510.031 58.44 514.271 57.28 519.151 57.28C524.511 57.28 529.231 58.68 533.311 61.48C537.391 64.28 540.031 67.96 541.231 72.52L536.791 72.88C538.791 67.68 541.791 63.8 545.791 61.24C549.791 58.6 554.391 57.28 559.591 57.28C564.231 57.28 568.351 58.32 571.951 60.4C575.631 62.48 578.511 65.4 580.591 69.16C582.671 72.84 583.711 77.12 583.711 82V124H567.991V85.72C567.991 82.84 567.471 80.36 566.431 78.28C565.391 76.2 563.951 74.6 562.111 73.48C560.271 72.28 558.031 71.68 555.391 71.68C552.911 71.68 550.711 72.28 548.791 73.48C546.871 74.6 545.391 76.2 544.351 78.28C543.311 80.36 542.791 82.84 542.791 85.72V124H527.071V85.72C527.071 82.84 526.551 80.36 525.511 78.28C524.471 76.2 522.991 74.6 521.071 73.48C519.231 72.28 517.031 71.68 514.471 71.68C511.991 71.68 509.791 72.28 507.871 73.48C505.951 74.6 504.471 76.2 503.431 78.28C502.391 80.36 501.871 82.84 501.871 85.72V124H486.151ZM624.131 125.44C617.731 125.44 611.891 123.96 606.611 121C601.411 118.04 597.251 114 594.131 108.88C591.091 103.76 589.571 97.92 589.571 91.36C589.571 84.8 591.091 78.96 594.131 73.84C597.251 68.72 601.411 64.68 606.611 61.72C611.811 58.76 617.651 57.28 624.131 57.28C630.531 57.28 636.331 58.76 641.531 61.72C646.731 64.68 650.851 68.72 653.891 73.84C657.011 78.88 658.571 84.72 658.571 91.36C658.571 97.92 657.011 103.76 653.891 108.88C650.771 114 646.611 118.04 641.411 121C636.211 123.96 630.451 125.44 624.131 125.44ZM624.131 111.04C627.651 111.04 630.731 110.2 633.371 108.52C636.091 106.84 638.211 104.52 639.731 101.56C641.331 98.52 642.131 95.12 642.131 91.36C642.131 87.52 641.331 84.16 639.731 81.28C638.211 78.32 636.091 76 633.371 74.32C630.731 72.56 627.651 71.68 624.131 71.68C620.531 71.68 617.371 72.56 614.651 74.32C611.931 76 609.771 78.32 608.171 81.28C606.651 84.16 605.891 87.52 605.891 91.36C605.891 95.12 606.651 98.52 608.171 101.56C609.771 104.52 611.931 106.84 614.651 108.52C617.371 110.2 620.531 111.04 624.131 111.04ZM696.052 125.44C689.732 125.44 684.092 123.96 679.132 121C674.172 117.96 670.252 113.84 667.372 108.64C664.492 103.44 663.052 97.68 663.052 91.36C663.052 84.96 664.492 79.2 667.372 74.08C670.252 68.96 674.172 64.88 679.132 61.84C684.172 58.8 689.772 57.28 695.932 57.28C700.892 57.28 705.292 58.28 709.132 60.28C713.052 62.2 716.132 64.92 718.372 68.44L715.972 71.68V33.16H731.692V124H716.812V111.4L718.492 114.52C716.252 118.04 713.132 120.76 709.132 122.68C705.132 124.52 700.772 125.44 696.052 125.44ZM697.732 111.04C701.332 111.04 704.492 110.2 707.212 108.52C709.932 106.84 712.052 104.52 713.572 101.56C715.172 98.6 715.972 95.2 715.972 91.36C715.972 87.6 715.172 84.24 713.572 81.28C712.052 78.24 709.932 75.88 707.212 74.2C704.492 72.52 701.332 71.68 697.732 71.68C694.212 71.68 691.052 72.56 688.252 74.32C685.452 76 683.252 78.32 681.652 81.28C680.132 84.16 679.372 87.52 679.372 91.36C679.372 95.2 680.132 98.6 681.652 101.56C683.252 104.52 685.452 106.84 688.252 108.52C691.052 110.2 694.212 111.04 697.732 111.04Z" fill="#BCBDC5"/>
</svg>
