<svg width="843" height="180" viewBox="0 0 843 180" fill="none" xmlns="http://www.w3.org/2000/svg">
<path fill-rule="evenodd" clip-rule="evenodd" d="M45 30H30V45V75H45V45H75V30H45ZM75 60H60V120H75V60ZM105 60H120V120H105V60Z" fill="#0D65EA"/>
<path fill-rule="evenodd" clip-rule="evenodd" d="M45 105H30V135V150H45H75V135H45V105Z" fill="#0D65EA"/>
<path fill-rule="evenodd" clip-rule="evenodd" d="M135 30H105V45H135V75H150V45V30H135Z" fill="#0D65EA"/>
<path fill-rule="evenodd" clip-rule="evenodd" d="M150 105H135V135H105V150H135H150V135V105Z" fill="#0D65EA"/>
<rect x="60" y="105" width="60" height="15" fill="#0D65EA"/>
<rect x="60" y="60" width="60" height="15" fill="#0D65EA"/>
<path d="M225.802 135.416C219.351 135.416 213.333 134.275 207.748 131.994C202.241 129.713 197.403 126.527 193.234 122.436C189.065 118.345 185.8 113.547 183.44 108.04C181.159 102.533 180.018 96.5153 180.018 89.986C180.018 83.4567 181.159 77.4387 183.44 71.932C185.721 66.4253 188.947 61.6267 193.116 57.536C197.285 53.4453 202.123 50.2987 207.63 48.096C213.215 45.8147 219.273 44.674 225.802 44.674C232.331 44.674 238.349 45.8147 243.856 48.096C249.441 50.3773 254.319 53.5633 258.488 57.654C262.657 61.666 265.883 66.4253 268.164 71.932C270.445 77.4387 271.586 83.4567 271.586 89.986C271.586 96.5153 270.406 102.533 268.046 108.04C265.765 113.547 262.539 118.345 258.37 122.436C254.201 126.527 249.323 129.713 243.738 131.994C238.231 134.275 232.253 135.416 225.802 135.416ZM225.802 121.256C230.129 121.256 234.101 120.469 237.72 118.896C241.417 117.323 244.643 115.159 247.396 112.406C250.149 109.574 252.273 106.27 253.768 102.494C255.263 98.6393 256.01 94.47 256.01 89.986C256.01 85.502 255.263 81.372 253.768 77.596C252.273 73.82 250.149 70.516 247.396 67.684C244.643 64.852 241.417 62.6887 237.72 61.194C234.101 59.6207 230.129 58.834 225.802 58.834C221.475 58.834 217.463 59.6207 213.766 61.194C210.147 62.6887 206.961 64.852 204.208 67.684C201.455 70.516 199.331 73.82 197.836 77.596C196.341 81.372 195.594 85.502 195.594 89.986C195.594 94.47 196.341 98.6393 197.836 102.494C199.331 106.27 201.455 109.574 204.208 112.406C206.961 115.159 210.147 117.323 213.766 118.896C217.463 120.469 221.475 121.256 225.802 121.256ZM246.452 144.62L218.722 98.836H235.124L263.09 144.62H246.452ZM303.084 135.416C298.128 135.416 293.801 134.315 290.104 132.112C286.485 129.909 283.692 126.841 281.726 122.908C279.838 118.975 278.894 114.412 278.894 109.22V69.926H293.88V107.922C293.88 110.675 294.43 113.075 295.532 115.12C296.633 117.165 298.167 118.778 300.134 119.958C302.179 121.059 304.5 121.61 307.096 121.61C309.692 121.61 311.973 121.059 313.94 119.958C315.985 118.778 317.558 117.126 318.66 115.002C319.761 112.878 320.312 110.4 320.312 107.568V69.926H335.416V134H321.138V121.374L322.436 123.498C320.941 127.431 318.463 130.421 315.002 132.466C311.619 134.433 307.646 135.416 303.084 135.416ZM364.54 135.416C360.135 135.416 356.28 134.669 352.976 133.174C349.672 131.679 347.116 129.555 345.306 126.802C343.497 124.049 342.592 120.784 342.592 117.008C342.592 113.468 343.379 110.321 344.952 107.568C346.526 104.815 348.964 102.494 352.268 100.606C355.572 98.718 359.702 97.3807 364.658 96.594L385.898 93.172V104.618L367.49 107.804C364.344 108.355 361.984 109.377 360.41 110.872C358.916 112.288 358.168 114.176 358.168 116.536C358.168 118.739 359.034 120.548 360.764 121.964C362.495 123.301 364.658 123.97 367.254 123.97C370.558 123.97 373.469 123.262 375.986 121.846C378.504 120.351 380.471 118.385 381.887 115.946C383.303 113.507 384.011 110.793 384.011 107.804V91.284C384.011 88.3733 382.909 86.0133 380.706 84.204C378.504 82.316 375.593 81.372 371.974 81.372C368.592 81.372 365.602 82.2767 363.006 84.086C360.489 85.8953 358.64 88.216 357.46 91.048L345.188 85.03C346.447 81.726 348.414 78.8547 351.088 76.416C353.763 73.8987 356.949 71.9713 360.646 70.634C364.344 69.218 368.316 68.51 372.564 68.51C377.756 68.51 382.319 69.4933 386.253 71.46C390.265 73.348 393.372 75.9833 395.575 79.366C397.856 82.7487 398.996 86.7213 398.996 91.284V134H384.837V122.908L388.022 122.79C386.37 125.543 384.364 127.864 382.004 129.752C379.723 131.561 377.127 132.977 374.217 134C371.306 134.944 368.081 135.416 364.54 135.416ZM438.654 135.416C432.518 135.416 426.972 133.961 422.016 131.05C417.138 128.061 413.284 124.049 410.452 119.014C407.698 113.901 406.322 108.237 406.322 102.022C406.322 95.65 407.738 89.9467 410.57 84.912C413.402 79.8773 417.256 75.9047 422.134 72.994C427.011 70.0047 432.478 68.51 438.536 68.51C443.492 68.51 447.897 69.4933 451.752 71.46C455.606 73.4267 458.635 76.1407 460.838 79.602L458.478 82.788V44.674H473.582V134H459.304V121.492L460.956 124.442C458.753 127.982 455.646 130.696 451.634 132.584C447.7 134.472 443.374 135.416 438.654 135.416ZM440.306 121.61C443.846 121.61 446.953 120.784 449.628 119.132C452.381 117.401 454.544 115.081 456.118 112.17C457.691 109.181 458.478 105.798 458.478 102.022C458.478 98.1673 457.691 94.7847 456.118 91.874C454.544 88.8847 452.381 86.564 449.628 84.912C446.953 83.1813 443.846 82.316 440.306 82.316C436.766 82.316 433.58 83.1813 430.748 84.912C427.994 86.564 425.831 88.8847 424.258 91.874C422.684 94.7847 421.898 98.1673 421.898 102.022C421.898 105.798 422.684 109.181 424.258 112.17C425.831 115.081 427.994 117.401 430.748 119.132C433.58 120.784 436.766 121.61 440.306 121.61ZM507.554 135.416C500.788 135.416 494.888 133.803 489.854 130.578C484.819 127.274 481.358 122.869 479.47 117.362L490.68 111.934C492.41 115.553 494.731 118.385 497.642 120.43C500.631 122.475 503.935 123.498 507.554 123.498C510.464 123.498 512.785 122.869 514.516 121.61C516.246 120.351 517.112 118.621 517.112 116.418C517.112 115.081 516.758 114.019 516.05 113.232C515.342 112.367 514.398 111.619 513.218 110.99C512.038 110.361 510.779 109.889 509.442 109.574L499.058 106.624C493.63 105.051 489.5 102.651 486.668 99.426C483.914 96.2007 482.538 92.3853 482.538 87.98C482.538 84.1253 483.521 80.7427 485.488 77.832C487.533 74.9213 490.326 72.64 493.866 70.988C497.484 69.336 501.536 68.51 506.02 68.51C512.077 68.51 517.426 69.9653 522.068 72.876C526.709 75.7867 529.974 79.838 531.862 85.03L520.416 90.458C519.314 87.4687 517.426 85.1087 514.752 83.378C512.156 81.6473 509.206 80.782 505.902 80.782C503.227 80.782 501.103 81.4113 499.53 82.67C498.035 83.85 497.288 85.4233 497.288 87.39C497.288 88.6487 497.602 89.7107 498.232 90.576C498.94 91.4413 499.884 92.1887 501.064 92.818C502.244 93.3687 503.542 93.8407 504.958 94.234L515.342 97.302C520.612 98.8753 524.664 101.275 527.496 104.5C530.328 107.647 531.744 111.462 531.744 115.946C531.744 119.801 530.721 123.183 528.676 126.094C526.63 129.005 523.798 131.286 520.18 132.938C516.64 134.59 512.431 135.416 507.554 135.416ZM569.94 135.416C563.568 135.416 557.864 133.961 552.83 131.05C547.795 128.061 543.822 124.049 540.912 119.014C538.001 113.901 536.546 108.197 536.546 101.904C536.546 95.532 537.962 89.8287 540.794 84.794C543.704 79.7593 547.677 75.7867 552.712 72.876C557.825 69.9653 563.568 68.51 569.94 68.51C574.424 68.51 578.632 69.2967 582.566 70.87C586.499 72.4433 589.882 74.646 592.714 77.478C595.546 80.2313 597.591 83.496 598.85 87.272L585.752 93.054C584.493 89.8287 582.448 87.2327 579.616 85.266C576.784 83.2993 573.558 82.316 569.94 82.316C566.478 82.316 563.41 83.142 560.736 84.794C558.061 86.446 555.937 88.7667 554.364 91.756C552.869 94.7453 552.122 98.1673 552.122 102.022C552.122 105.798 552.869 109.181 554.364 112.17C555.937 115.081 558.061 117.401 560.736 119.132C563.41 120.784 566.478 121.61 569.94 121.61C573.637 121.61 576.862 120.627 579.616 118.66C582.448 116.693 584.493 114.058 585.752 110.754L598.85 116.772C597.591 120.312 595.546 123.498 592.714 126.33C589.882 129.162 586.499 131.404 582.566 133.056C578.711 134.629 574.502 135.416 569.94 135.416ZM637.483 135.416C631.189 135.416 625.486 133.961 620.373 131.05C615.259 128.139 611.169 124.167 608.101 119.132C605.111 114.097 603.617 108.355 603.617 101.904C603.617 95.4533 605.111 89.75 608.101 84.794C611.169 79.7593 615.259 75.7867 620.373 72.876C625.486 69.9653 631.189 68.51 637.483 68.51C643.776 68.51 649.44 69.9653 654.475 72.876C659.588 75.708 663.639 79.6413 666.629 84.676C669.697 89.7107 671.231 95.4533 671.231 101.904C671.231 108.355 669.697 114.137 666.629 119.25C663.561 124.285 659.47 128.257 654.357 131.168C649.322 134 643.697 135.416 637.483 135.416ZM637.483 121.61C641.023 121.61 644.13 120.784 646.805 119.132C649.479 117.401 651.603 115.041 653.177 112.052C654.75 109.063 655.537 105.68 655.537 101.904C655.537 98.128 654.75 94.7847 653.177 91.874C651.603 88.8847 649.479 86.564 646.805 84.912C644.13 83.1813 641.023 82.316 637.483 82.316C633.943 82.316 630.796 83.1813 628.043 84.912C625.289 86.564 623.126 88.8847 621.553 91.874C619.979 94.7847 619.193 98.128 619.193 101.904C619.193 105.68 619.979 109.063 621.553 112.052C623.126 115.041 625.289 117.401 628.043 119.132C630.796 120.784 633.943 121.61 637.483 121.61ZM678.469 157.6V69.926H692.629V82.788L691.095 79.602C693.377 76.1407 696.405 73.4267 700.181 71.46C704.036 69.4933 708.441 68.51 713.397 68.51C719.455 68.51 724.922 70.0047 729.799 72.994C734.677 75.9047 738.531 79.8773 741.363 84.912C744.274 89.9467 745.729 95.65 745.729 102.022C745.729 108.237 744.313 113.901 741.481 119.014C738.649 124.049 734.795 128.061 729.917 131.05C725.04 133.961 719.494 135.416 713.279 135.416C708.559 135.416 704.233 134.472 700.299 132.584C696.366 130.696 693.298 127.982 691.095 124.442L693.455 121.492V157.6H678.469ZM711.627 121.61C715.246 121.61 718.432 120.784 721.185 119.132C723.939 117.401 726.102 115.081 727.675 112.17C729.249 109.181 730.035 105.798 730.035 102.022C730.035 98.1673 729.249 94.7847 727.675 91.874C726.102 88.8847 723.939 86.564 721.185 84.912C718.432 83.1813 715.246 82.316 711.627 82.316C708.166 82.316 705.059 83.1813 702.305 84.912C699.552 86.564 697.389 88.8847 695.815 91.874C694.242 94.7847 693.455 98.1673 693.455 102.022C693.455 105.798 694.242 109.181 695.815 112.17C697.389 115.081 699.552 117.401 702.305 119.132C705.059 120.784 708.166 121.61 711.627 121.61ZM783.241 135.416C776.712 135.416 770.969 133.921 766.013 130.932C761.057 127.943 757.203 123.931 754.449 118.896C751.696 113.783 750.319 108.079 750.319 101.786C750.319 95.414 751.696 89.7107 754.449 84.676C757.281 79.6413 761.097 75.708 765.895 72.876C770.694 69.9653 776.122 68.51 782.179 68.51C787.057 68.51 791.423 69.336 795.277 70.988C799.132 72.64 802.357 74.9213 804.953 77.832C807.628 80.664 809.673 83.968 811.089 87.744C812.505 91.52 813.213 95.532 813.213 99.78C813.213 100.881 813.135 102.022 812.977 103.202C812.899 104.303 812.702 105.326 812.387 106.27H762.591V94.706H803.891L796.811 100.016C797.519 96.3973 797.323 93.172 796.221 90.34C795.12 87.4293 793.35 85.148 790.911 83.496C788.473 81.7653 785.562 80.9 782.179 80.9C778.797 80.9 775.807 81.726 773.211 83.378C770.694 85.03 768.767 87.4293 767.429 90.576C766.092 93.7227 765.581 97.4987 765.895 101.904C765.581 105.995 766.131 109.574 767.547 112.642C768.963 115.631 771.048 117.991 773.801 119.722C776.555 121.374 779.741 122.2 783.359 122.2C786.978 122.2 790.046 121.453 792.563 119.958C795.081 118.385 797.087 116.339 798.581 113.822L810.735 119.722C809.477 122.711 807.51 125.425 804.835 127.864C802.161 130.224 798.975 132.073 795.277 133.41C791.659 134.747 787.647 135.416 783.241 135.416Z" fill="#0D65EA"/>
</svg>
