<svg width="882" height="160" viewBox="0 0 882 160" fill="none" xmlns="http://www.w3.org/2000/svg">
<path fill-rule="evenodd" clip-rule="evenodd" d="M62.5 0H135V72.5H62.5V0ZM72.5 10V62.5H125V10H72.5Z" fill="black"/>
<path fill-rule="evenodd" clip-rule="evenodd" d="M0 25H72.5V97.5H0V25ZM10 35V87.5H62.5V35H10Z" fill="black"/>
<path fill-rule="evenodd" clip-rule="evenodd" d="M87.5 62.5H160V135H87.5V62.5ZM97.5 72.5V125H150V72.5H97.5Z" fill="black"/>
<path fill-rule="evenodd" clip-rule="evenodd" d="M25 87.5H97.5V160H25V87.5ZM35 97.5V150H87.5V97.5H35Z" fill="black"/>
<path d="M204.64 128.5V39.1H217.36L266.56 105.34L259.96 106.66V39.1H276.28V128.5H263.44L214.96 61.78L220.96 60.46V128.5H204.64ZM318.425 129.94C311.705 129.94 305.825 128.42 300.785 125.38C295.745 122.34 291.825 118.22 289.025 113.02C286.225 107.82 284.825 102.06 284.825 95.74C284.825 89.18 286.225 83.38 289.025 78.34C291.905 73.22 295.785 69.18 300.665 66.22C305.625 63.26 311.145 61.78 317.225 61.78C322.345 61.78 326.825 62.62 330.665 64.3C334.585 65.98 337.905 68.3 340.625 71.26C343.345 74.22 345.425 77.62 346.865 81.46C348.305 85.22 349.025 89.3 349.025 93.7C349.025 94.82 348.945 95.98 348.785 97.18C348.705 98.38 348.505 99.42 348.185 100.3H297.785V88.3H339.305L331.865 93.94C332.585 90.26 332.385 86.98 331.265 84.1C330.225 81.22 328.465 78.94 325.985 77.26C323.585 75.58 320.665 74.74 317.225 74.74C313.945 74.74 311.025 75.58 308.465 77.26C305.905 78.86 303.945 81.26 302.585 84.46C301.305 87.58 300.825 91.38 301.145 95.86C300.825 99.86 301.345 103.42 302.705 106.54C304.145 109.58 306.225 111.94 308.945 113.62C311.745 115.3 314.945 116.14 318.545 116.14C322.145 116.14 325.185 115.38 327.665 113.86C330.225 112.34 332.225 110.3 333.665 107.74L346.385 113.98C345.105 117.1 343.105 119.86 340.385 122.26C337.665 124.66 334.425 126.54 330.665 127.9C326.985 129.26 322.905 129.94 318.425 129.94ZM349.09 128.5L371.89 95.74L348.97 63.22H367.45L385.33 89.62H377.05L394.93 63.22H413.29L390.49 95.74L413.17 128.5H394.81L377.17 102.22H385.21L367.57 128.5H349.09ZM435.712 129.94C431.152 129.94 427.192 129.18 423.832 127.66C420.472 126.14 417.872 123.98 416.032 121.18C414.192 118.3 413.272 114.98 413.272 111.22C413.272 107.62 414.072 104.42 415.672 101.62C417.272 98.74 419.752 96.34 423.112 94.42C426.472 92.5 430.712 91.14 435.832 90.34L457.192 86.86V98.86L438.832 101.98C435.712 102.54 433.392 103.54 431.872 104.98C430.352 106.42 429.592 108.3 429.592 110.62C429.592 112.86 430.432 114.66 432.112 116.02C433.872 117.3 436.032 117.94 438.592 117.94C441.872 117.94 444.752 117.26 447.232 115.9C449.792 114.46 451.752 112.5 453.112 110.02C454.552 107.54 455.272 104.82 455.272 101.86V85.06C455.272 82.26 454.152 79.94 451.912 78.1C449.752 76.18 446.872 75.22 443.272 75.22C439.912 75.22 436.912 76.14 434.272 77.98C431.712 79.74 429.832 82.1 428.632 85.06L415.792 78.82C417.072 75.38 419.072 72.42 421.792 69.94C424.592 67.38 427.872 65.38 431.632 63.94C435.392 62.5 439.472 61.78 443.872 61.78C449.232 61.78 453.952 62.78 458.032 64.78C462.112 66.7 465.272 69.42 467.512 72.94C469.832 76.38 470.992 80.42 470.992 85.06V128.5H456.112V117.34L459.472 117.1C457.792 119.9 455.792 122.26 453.472 124.18C451.152 126.02 448.512 127.46 445.552 128.5C442.592 129.46 439.312 129.94 435.712 129.94ZM499.89 128.5V39.1H531.45C537.37 39.1 542.57 40.22 547.05 42.46C551.53 44.7 555.01 47.9 557.49 52.06C560.05 56.22 561.33 61.1 561.33 66.7C561.33 72.3 560.05 77.18 557.49 81.34C555.01 85.42 551.53 88.62 547.05 90.94C542.65 93.18 537.45 94.3 531.45 94.3H511.65V128.5H499.89ZM511.65 83.5H531.81C535.41 83.5 538.53 82.82 541.17 81.46C543.81 80.1 545.85 78.14 547.29 75.58C548.73 73.02 549.45 70.06 549.45 66.7C549.45 63.26 548.73 60.3 547.29 57.82C545.85 55.26 543.81 53.3 541.17 51.94C538.53 50.58 535.41 49.9 531.81 49.9H511.65V83.5ZM571.113 128.5V63.82H582.033V75.7L580.833 74.02C582.353 70.34 584.673 67.62 587.793 65.86C590.913 64.02 594.713 63.1 599.193 63.1H603.153V73.66H597.513C592.953 73.66 589.273 75.1 586.473 77.98C583.673 80.78 582.273 84.78 582.273 89.98V128.5H571.113ZM638.987 129.94C632.747 129.94 627.107 128.5 622.067 125.62C617.027 122.66 613.027 118.62 610.067 113.5C607.107 108.38 605.627 102.58 605.627 96.1C605.627 89.62 607.067 83.86 609.947 78.82C612.907 73.78 616.907 69.78 621.947 66.82C626.987 63.86 632.667 62.38 638.987 62.38C645.227 62.38 650.867 63.86 655.907 66.82C660.947 69.7 664.907 73.66 667.787 78.7C670.747 83.74 672.227 89.54 672.227 96.1C672.227 102.66 670.707 108.5 667.667 113.62C664.627 118.66 660.587 122.66 655.547 125.62C650.587 128.5 645.067 129.94 638.987 129.94ZM638.987 119.14C642.987 119.14 646.587 118.14 649.787 116.14C653.067 114.14 655.627 111.38 657.467 107.86C659.387 104.34 660.347 100.42 660.347 96.1C660.347 91.7 659.387 87.82 657.467 84.46C655.627 81.02 653.067 78.3 649.787 76.3C646.587 74.22 642.987 73.18 638.987 73.18C634.907 73.18 631.227 74.22 627.947 76.3C624.747 78.3 622.187 81.02 620.267 84.46C618.347 87.82 617.387 91.7 617.387 96.1C617.387 100.42 618.347 104.34 620.267 107.86C622.187 111.38 624.747 114.14 627.947 116.14C631.227 118.14 634.907 119.14 638.987 119.14ZM670.942 154.9C670.222 154.9 669.342 154.86 668.302 154.78C667.262 154.7 666.422 154.58 665.782 154.42V144.34C667.382 144.58 668.982 144.7 670.582 144.7C673.862 144.7 676.582 143.78 678.742 141.94C680.902 140.1 681.982 137.3 681.982 133.54V63.82H693.142V133.54C693.142 138.18 692.182 142.06 690.262 145.18C688.342 148.38 685.702 150.78 682.342 152.38C678.982 154.06 675.182 154.9 670.942 154.9ZM681.982 53.5V39.1H693.142V53.5H681.982ZM735.419 129.94C729.179 129.94 723.619 128.46 718.739 125.5C713.859 122.54 710.019 118.5 707.219 113.38C704.419 108.18 703.019 102.38 703.019 95.98C703.019 89.5 704.379 83.74 707.099 78.7C709.899 73.66 713.659 69.7 718.379 66.82C723.179 63.86 728.539 62.38 734.459 62.38C739.259 62.38 743.499 63.26 747.179 65.02C750.939 66.7 754.099 69.02 756.659 71.98C759.299 74.86 761.299 78.18 762.659 81.94C764.099 85.62 764.819 89.46 764.819 93.46C764.819 94.34 764.739 95.34 764.579 96.46C764.499 97.5 764.379 98.5 764.219 99.46H711.179V89.86H757.739L752.459 94.18C753.179 90.02 752.779 86.3 751.259 83.02C749.739 79.74 747.499 77.14 744.539 75.22C741.579 73.3 738.219 72.34 734.459 72.34C730.699 72.34 727.259 73.3 724.139 75.22C721.019 77.14 718.579 79.9 716.819 83.5C715.139 87.02 714.459 91.22 714.779 96.1C714.459 100.82 715.179 104.98 716.939 108.58C718.779 112.1 721.339 114.86 724.619 116.86C727.979 118.78 731.619 119.74 735.539 119.74C739.859 119.74 743.499 118.74 746.459 116.74C749.419 114.74 751.819 112.18 753.659 109.06L763.019 113.86C761.739 116.82 759.739 119.54 757.019 122.02C754.379 124.42 751.219 126.34 747.539 127.78C743.939 129.22 739.899 129.94 735.419 129.94ZM804.57 129.94C798.25 129.94 792.61 128.46 787.65 125.5C782.77 122.54 778.93 118.5 776.13 113.38C773.33 108.26 771.93 102.5 771.93 96.1C771.93 89.62 773.33 83.86 776.13 78.82C778.93 73.78 782.77 69.78 787.65 66.82C792.61 63.86 798.25 62.38 804.57 62.38C808.81 62.38 812.77 63.14 816.45 64.66C820.13 66.18 823.37 68.22 826.17 70.78C828.97 73.34 831.01 76.34 832.29 79.78L822.33 84.58C820.81 81.22 818.49 78.5 815.37 76.42C812.25 74.26 808.65 73.18 804.57 73.18C800.65 73.18 797.09 74.18 793.89 76.18C790.77 78.18 788.29 80.9 786.45 84.34C784.61 87.78 783.69 91.74 783.69 96.22C783.69 100.54 784.61 104.46 786.45 107.98C788.29 111.42 790.77 114.14 793.89 116.14C797.09 118.14 800.65 119.14 804.57 119.14C808.65 119.14 812.25 118.1 815.37 116.02C818.49 113.86 820.81 111.02 822.33 107.5L832.29 112.54C831.01 115.9 828.97 118.9 826.17 121.54C823.37 124.1 820.13 126.14 816.45 127.66C812.77 129.18 808.81 129.94 804.57 129.94ZM868.354 129.22C862.034 129.22 857.154 127.42 853.714 123.82C850.354 120.22 848.674 115.14 848.674 108.58V74.5H836.914V63.82H839.314C842.194 63.82 844.474 62.94 846.154 61.18C847.834 59.42 848.674 57.1 848.674 54.22V48.94H859.834V63.82H874.354V74.5H859.834V108.22C859.834 110.38 860.154 112.26 860.794 113.86C861.514 115.46 862.674 116.74 864.274 117.7C865.874 118.58 867.994 119.02 870.634 119.02C871.194 119.02 871.874 118.98 872.674 118.9C873.554 118.82 874.354 118.74 875.074 118.66V128.5C874.034 128.74 872.874 128.9 871.594 128.98C870.314 129.14 869.234 129.22 868.354 129.22Z" fill="black"/>
</svg>
