<svg width="877" height="150" viewBox="0 0 877 150" fill="none" xmlns="http://www.w3.org/2000/svg">
<rect opacity="0.5" x="62.5" width="62.5" height="62.5" fill="black"/>
<rect y="25" width="62.5" height="62.5" fill="black"/>
<rect x="87.5" y="62.5" width="62.5" height="62.5" fill="black"/>
<rect opacity="0.5" x="25" y="87.5" width="62.5" height="62.5" fill="black"/>
<path d="M199.64 123.5V34.1H212.36L261.56 100.34L254.96 101.66V34.1H271.28V123.5H258.44L209.96 56.78L215.96 55.46V123.5H199.64ZM313.425 124.94C306.705 124.94 300.825 123.42 295.785 120.38C290.745 117.34 286.825 113.22 284.025 108.02C281.225 102.82 279.825 97.06 279.825 90.74C279.825 84.18 281.225 78.38 284.025 73.34C286.905 68.22 290.785 64.18 295.665 61.22C300.625 58.26 306.145 56.78 312.225 56.78C317.345 56.78 321.825 57.62 325.665 59.3C329.585 60.98 332.905 63.3 335.625 66.26C338.345 69.22 340.425 72.62 341.865 76.46C343.305 80.22 344.025 84.3 344.025 88.7C344.025 89.82 343.945 90.98 343.785 92.18C343.705 93.38 343.505 94.42 343.185 95.3H292.785V83.3H334.305L326.865 88.94C327.585 85.26 327.385 81.98 326.265 79.1C325.225 76.22 323.465 73.94 320.985 72.26C318.585 70.58 315.665 69.74 312.225 69.74C308.945 69.74 306.025 70.58 303.465 72.26C300.905 73.86 298.945 76.26 297.585 79.46C296.305 82.58 295.825 86.38 296.145 90.86C295.825 94.86 296.345 98.42 297.705 101.54C299.145 104.58 301.225 106.94 303.945 108.62C306.745 110.3 309.945 111.14 313.545 111.14C317.145 111.14 320.185 110.38 322.665 108.86C325.225 107.34 327.225 105.3 328.665 102.74L341.385 108.98C340.105 112.1 338.105 114.86 335.385 117.26C332.665 119.66 329.425 121.54 325.665 122.9C321.985 124.26 317.905 124.94 313.425 124.94ZM344.09 123.5L366.89 90.74L343.97 58.22H362.45L380.33 84.62H372.05L389.93 58.22H408.29L385.49 90.74L408.17 123.5H389.81L372.17 97.22H380.21L362.57 123.5H344.09ZM430.712 124.94C426.152 124.94 422.192 124.18 418.832 122.66C415.472 121.14 412.872 118.98 411.032 116.18C409.192 113.3 408.272 109.98 408.272 106.22C408.272 102.62 409.072 99.42 410.672 96.62C412.272 93.74 414.752 91.34 418.112 89.42C421.472 87.5 425.712 86.14 430.832 85.34L452.192 81.86V93.86L433.832 96.98C430.712 97.54 428.392 98.54 426.872 99.98C425.352 101.42 424.592 103.3 424.592 105.62C424.592 107.86 425.432 109.66 427.112 111.02C428.872 112.3 431.032 112.94 433.592 112.94C436.872 112.94 439.752 112.26 442.232 110.9C444.792 109.46 446.752 107.5 448.112 105.02C449.552 102.54 450.272 99.82 450.272 96.86V80.06C450.272 77.26 449.152 74.94 446.912 73.1C444.752 71.18 441.872 70.22 438.272 70.22C434.912 70.22 431.912 71.14 429.272 72.98C426.712 74.74 424.832 77.1 423.632 80.06L410.792 73.82C412.072 70.38 414.072 67.42 416.792 64.94C419.592 62.38 422.872 60.38 426.632 58.94C430.392 57.5 434.472 56.78 438.872 56.78C444.232 56.78 448.952 57.78 453.032 59.78C457.112 61.7 460.272 64.42 462.512 67.94C464.832 71.38 465.992 75.42 465.992 80.06V123.5H451.112V112.34L454.472 112.1C452.792 114.9 450.792 117.26 448.472 119.18C446.152 121.02 443.512 122.46 440.552 123.5C437.592 124.46 434.312 124.94 430.712 124.94ZM494.89 123.5V34.1H526.45C532.37 34.1 537.57 35.22 542.05 37.46C546.53 39.7 550.01 42.9 552.49 47.06C555.05 51.22 556.33 56.1 556.33 61.7C556.33 67.3 555.05 72.18 552.49 76.34C550.01 80.42 546.53 83.62 542.05 85.94C537.65 88.18 532.45 89.3 526.45 89.3H506.65V123.5H494.89ZM506.65 78.5H526.81C530.41 78.5 533.53 77.82 536.17 76.46C538.81 75.1 540.85 73.14 542.29 70.58C543.73 68.02 544.45 65.06 544.45 61.7C544.45 58.26 543.73 55.3 542.29 52.82C540.85 50.26 538.81 48.3 536.17 46.94C533.53 45.58 530.41 44.9 526.81 44.9H506.65V78.5ZM566.113 123.5V58.82H577.033V70.7L575.833 69.02C577.353 65.34 579.673 62.62 582.793 60.86C585.913 59.02 589.713 58.1 594.193 58.1H598.153V68.66H592.513C587.953 68.66 584.273 70.1 581.473 72.98C578.673 75.78 577.273 79.78 577.273 84.98V123.5H566.113ZM633.987 124.94C627.747 124.94 622.107 123.5 617.067 120.62C612.027 117.66 608.027 113.62 605.067 108.5C602.107 103.38 600.627 97.58 600.627 91.1C600.627 84.62 602.067 78.86 604.947 73.82C607.907 68.78 611.907 64.78 616.947 61.82C621.987 58.86 627.667 57.38 633.987 57.38C640.227 57.38 645.867 58.86 650.907 61.82C655.947 64.7 659.907 68.66 662.787 73.7C665.747 78.74 667.227 84.54 667.227 91.1C667.227 97.66 665.707 103.5 662.667 108.62C659.627 113.66 655.587 117.66 650.547 120.62C645.587 123.5 640.067 124.94 633.987 124.94ZM633.987 114.14C637.987 114.14 641.587 113.14 644.787 111.14C648.067 109.14 650.627 106.38 652.467 102.86C654.387 99.34 655.347 95.42 655.347 91.1C655.347 86.7 654.387 82.82 652.467 79.46C650.627 76.02 648.067 73.3 644.787 71.3C641.587 69.22 637.987 68.18 633.987 68.18C629.907 68.18 626.227 69.22 622.947 71.3C619.747 73.3 617.187 76.02 615.267 79.46C613.347 82.82 612.387 86.7 612.387 91.1C612.387 95.42 613.347 99.34 615.267 102.86C617.187 106.38 619.747 109.14 622.947 111.14C626.227 113.14 629.907 114.14 633.987 114.14ZM665.942 149.9C665.222 149.9 664.342 149.86 663.302 149.78C662.262 149.7 661.422 149.58 660.782 149.42V139.34C662.382 139.58 663.982 139.7 665.582 139.7C668.862 139.7 671.582 138.78 673.742 136.94C675.902 135.1 676.982 132.3 676.982 128.54V58.82H688.142V128.54C688.142 133.18 687.182 137.06 685.262 140.18C683.342 143.38 680.702 145.78 677.342 147.38C673.982 149.06 670.182 149.9 665.942 149.9ZM676.982 48.5V34.1H688.142V48.5H676.982ZM730.419 124.94C724.179 124.94 718.619 123.46 713.739 120.5C708.859 117.54 705.019 113.5 702.219 108.38C699.419 103.18 698.019 97.38 698.019 90.98C698.019 84.5 699.379 78.74 702.099 73.7C704.899 68.66 708.659 64.7 713.379 61.82C718.179 58.86 723.539 57.38 729.459 57.38C734.259 57.38 738.499 58.26 742.179 60.02C745.939 61.7 749.099 64.02 751.659 66.98C754.299 69.86 756.299 73.18 757.659 76.94C759.099 80.62 759.819 84.46 759.819 88.46C759.819 89.34 759.739 90.34 759.579 91.46C759.499 92.5 759.379 93.5 759.219 94.46H706.179V84.86H752.739L747.459 89.18C748.179 85.02 747.779 81.3 746.259 78.02C744.739 74.74 742.499 72.14 739.539 70.22C736.579 68.3 733.219 67.34 729.459 67.34C725.699 67.34 722.259 68.3 719.139 70.22C716.019 72.14 713.579 74.9 711.819 78.5C710.139 82.02 709.459 86.22 709.779 91.1C709.459 95.82 710.179 99.98 711.939 103.58C713.779 107.1 716.339 109.86 719.619 111.86C722.979 113.78 726.619 114.74 730.539 114.74C734.859 114.74 738.499 113.74 741.459 111.74C744.419 109.74 746.819 107.18 748.659 104.06L758.019 108.86C756.739 111.82 754.739 114.54 752.019 117.02C749.379 119.42 746.219 121.34 742.539 122.78C738.939 124.22 734.899 124.94 730.419 124.94ZM799.57 124.94C793.25 124.94 787.61 123.46 782.65 120.5C777.77 117.54 773.93 113.5 771.13 108.38C768.33 103.26 766.93 97.5 766.93 91.1C766.93 84.62 768.33 78.86 771.13 73.82C773.93 68.78 777.77 64.78 782.65 61.82C787.61 58.86 793.25 57.38 799.57 57.38C803.81 57.38 807.77 58.14 811.45 59.66C815.13 61.18 818.37 63.22 821.17 65.78C823.97 68.34 826.01 71.34 827.29 74.78L817.33 79.58C815.81 76.22 813.49 73.5 810.37 71.42C807.25 69.26 803.65 68.18 799.57 68.18C795.65 68.18 792.09 69.18 788.89 71.18C785.77 73.18 783.29 75.9 781.45 79.34C779.61 82.78 778.69 86.74 778.69 91.22C778.69 95.54 779.61 99.46 781.45 102.98C783.29 106.42 785.77 109.14 788.89 111.14C792.09 113.14 795.65 114.14 799.57 114.14C803.65 114.14 807.25 113.1 810.37 111.02C813.49 108.86 815.81 106.02 817.33 102.5L827.29 107.54C826.01 110.9 823.97 113.9 821.17 116.54C818.37 119.1 815.13 121.14 811.45 122.66C807.77 124.18 803.81 124.94 799.57 124.94ZM863.354 124.22C857.034 124.22 852.154 122.42 848.714 118.82C845.354 115.22 843.674 110.14 843.674 103.58V69.5H831.914V58.82H834.314C837.194 58.82 839.474 57.94 841.154 56.18C842.834 54.42 843.674 52.1 843.674 49.22V43.94H854.834V58.82H869.354V69.5H854.834V103.22C854.834 105.38 855.154 107.26 855.794 108.86C856.514 110.46 857.674 111.74 859.274 112.7C860.874 113.58 862.994 114.02 865.634 114.02C866.194 114.02 866.874 113.98 867.674 113.9C868.554 113.82 869.354 113.74 870.074 113.66V123.5C869.034 123.74 867.874 123.9 866.594 123.98C865.314 124.14 864.234 124.22 863.354 124.22Z" fill="black"/>
</svg>
